<?xml version="1.0" standalone="no"?>
<!DOCTYPE svg PUBLIC "-//W3C//DTD SVG 20010904//EN"
 "http://www.w3.org/TR/2001/REC-SVG-20010904/DTD/svg10.dtd">
<svg version="1.0" xmlns="http://www.w3.org/2000/svg"
 width="488.000000pt" height="481.000000pt" viewBox="0 0 488.000000 481.000000"
 preserveAspectRatio="xMidYMid meet">

<g transform="translate(0.000000,481.000000) scale(0.100000,-0.100000)"
fill="#000000" stroke="none">
<path d="M2255 4804 c-16 -2 -73 -9 -125 -15 -435 -49 -887 -241 -1239 -527
-471 -382 -774 -915 -868 -1522 -24 -162 -24 -511 0 -670 101 -646 426 -1191
942 -1579 178 -135 419 -265 635 -344 321 -118 724 -170 1061 -137 327 33 576
103 864 245 290 142 522 315 729 543 506 557 719 1299 586 2042 -83 461 -320
909 -660 1249 -198 198 -397 340 -655 466 -288 142 -537 212 -864 245 -96 9
-337 12 -406 4z m412 -69 c335 -37 583 -109 842 -247 337 -179 677 -492 894
-823 72 -111 186 -340 226 -457 l30 -88 -29 0 c-24 0 -31 5 -38 33 -5 17 -24
67 -41 109 -115 288 -315 577 -553 803 -445 421 -954 625 -1558 625 -660 0
-1214 -249 -1678 -754 -200 -219 -358 -474 -449 -726 -27 -75 -34 -85 -57 -88
-14 -2 -26 2 -26 8 0 6 16 55 36 108 110 296 314 604 555 837 312 302 626 485
1029 598 86 24 162 38 319 57 185 23 323 24 498 5z m-1 -100 c306 -32 535
-100 782 -230 407 -216 780 -598 985 -1010 39 -78 107 -246 107 -264 0 -8
-109 -11 -394 -11 l-394 0 -52 81 c-247 390 -649 659 -1050 704 -73 8 -92 14
-84 27 10 16 34 160 28 170 -11 17 -34 7 -48 -20 -25 -48 -94 -104 -124 -100
l-27 3 0 90 0 90 35 0 c33 0 35 -2 35 -35 0 -39 19 -49 50 -27 15 12 19 29 21
90 3 82 -8 107 -48 107 -17 0 -20 -5 -15 -29 7 -36 -11 -54 -50 -49 l-28 3 0
90 0 90 40 -2 c50 -4 82 -27 116 -84 16 -28 32 -44 45 -44 17 0 19 8 19 85 l0
85 -60 7 c-111 13 -304 13 -317 0 -9 -9 -8 -15 4 -24 19 -16 34 -189 18 -218
-7 -13 -5 -27 5 -47 21 -40 20 -171 -1 -195 -13 -14 -14 -21 -5 -32 16 -19 6
-23 -60 -31 -70 -8 -188 -33 -214 -45 -11 -5 -60 -25 -110 -44 -270 -108 -522
-320 -698 -588 l-70 -108 -389 0 c-213 0 -388 2 -388 4 0 3 13 40 29 84 197
534 679 1037 1212 1266 339 145 720 201 1095 161z m89 -770 c295 -67 532 -210
746 -450 146 -164 231 -321 307 -565 21 -68 42 -245 42 -360 0 -383 -136 -713
-405 -985 -233 -235 -503 -372 -810 -410 -198 -25 -368 -15 -545 30 -205 53
-338 120 -515 261 -357 285 -537 654 -537 1104 0 391 130 705 407 986 211 213
413 327 687 388 158 35 155 35 338 32 137 -3 185 -8 285 -31z m-1740 -972 c-3
-10 -9 -30 -12 -45 l-5 -28 -404 0 -404 0 0 45 0 45 416 0 c392 0 416 -1 409
-17z m3685 -28 l0 -45 -419 0 -418 0 -6 28 c-3 15 -9 35 -12 45 -7 16 17 17
424 17 l431 0 0 -45z m-3746 -243 c2 -4 2 -27 -1 -50 l-6 -42 -378 0 -379 0 0
50 0 50 379 0 c209 0 382 -4 385 -8z m3744 -44 l3 -48 -394 0 -394 0 -6 42
c-3 23 -3 46 -1 50 3 5 182 7 397 6 l392 -3 3 -47z m-3746 -268 c4 -19 5 -41
3 -47 -3 -10 -89 -13 -385 -13 l-380 0 0 50 0 50 377 -2 377 -3 8 -35z m3743
-10 l0 -45 -389 -3 c-215 -1 -394 2 -398 6 -5 5 -6 28 -2 50 l7 42 391 -2 391
-3 0 -45z m-3692 -267 c3 -16 9 -36 12 -45 7 -17 -17 -18 -409 -18 l-416 0 0
45 0 45 404 0 403 0 6 -27z m3697 -18 l0 -45 -431 0 c-407 0 -431 1 -424 18 3
9 9 29 12 45 l6 27 418 0 419 0 0 -45z m-4390 -360 c112 -303 285 -570 525
-811 328 -330 692 -536 1105 -627 311 -69 691 -69 1000 -1 410 91 747 277
1074 594 283 274 447 532 588 923 8 19 17 27 34 27 32 0 31 -11 -15 -134 -202
-536 -644 -1024 -1160 -1281 -215 -107 -416 -171 -666 -211 -155 -25 -543 -25
-705 0 -509 79 -926 298 -1305 687 -218 224 -358 426 -474 689 -44 99 -91 237
-83 245 3 3 15 5 26 3 14 -2 28 -27 56 -103z m828 58 c49 -84 167 -237 240
-310 298 -300 636 -442 1050 -443 231 0 410 38 623 133 240 108 506 352 661
606 l37 61 397 0 397 0 -6 -29 c-11 -54 -76 -206 -138 -321 -110 -206 -227
-359 -421 -552 -427 -426 -945 -639 -1550 -638 -280 1 -547 50 -798 147 -459
178 -904 577 -1154 1036 -61 112 -149 324 -142 343 4 12 68 14 391 14 l385 0
28 -47z"/>
<path d="M2135 4442 c-4 -4 -55 -10 -113 -13 -91 -4 -116 -10 -167 -34 -33
-16 -76 -32 -95 -35 -31 -4 -35 -8 -33 -35 1 -32 20 -110 33 -135 4 -8 13 -15
20 -15 16 0 27 19 40 71 5 23 20 54 32 69 l21 27 13 -23 c17 -34 37 -137 31
-161 -3 -12 2 -32 13 -47 27 -38 54 -156 40 -180 -5 -11 -10 -27 -10 -37 0
-17 -1 -17 123 2 48 8 57 29 25 59 -19 18 -28 41 -37 99 -8 51 -9 81 -2 93 7
14 5 23 -9 38 -17 18 -40 115 -40 168 0 32 34 17 86 -38 72 -76 99 -73 82 9
-4 23 -10 57 -13 78 -5 34 -25 54 -40 40z"/>
<path d="M2686 4441 c-4 -6 0 -21 8 -33 14 -24 42 -125 57 -213 33 -191 56
-296 65 -305 8 -8 30 15 80 86 37 53 79 103 91 111 13 9 23 23 23 32 1 24 127
171 158 182 23 9 24 11 10 25 -19 19 -88 43 -105 37 -8 -3 -11 -14 -7 -27 4
-17 -9 -41 -52 -97 -76 -98 -120 -148 -111 -126 4 10 0 28 -8 40 -8 13 -23 67
-34 122 -17 88 -18 102 -5 116 19 22 3 34 -56 43 -25 4 -59 9 -76 12 -18 3
-35 1 -38 -5z"/>
<path d="M3244 4275 c8 -32 -48 -173 -81 -201 -16 -13 -22 -26 -17 -38 3 -9
-6 -50 -21 -91 -20 -57 -33 -78 -53 -88 -52 -24 -38 -39 98 -104 72 -35 137
-63 145 -63 16 0 105 114 105 135 0 21 -36 19 -68 -3 -28 -20 -86 -42 -107
-42 -7 0 -23 8 -35 18 l-22 18 38 77 c20 42 42 77 48 77 17 0 56 -29 56 -42 0
-6 -7 -19 -16 -29 -18 -21 -11 -39 16 -39 34 0 49 12 61 48 7 21 20 43 31 50
32 23 16 92 -22 92 -15 0 -20 -7 -20 -26 0 -22 -4 -25 -31 -22 -54 5 -58 28
-19 108 40 82 56 88 106 35 32 -34 55 -110 40 -133 -7 -12 22 -44 34 -37 12 8
80 125 80 140 0 16 -36 39 -140 91 -41 20 -83 44 -93 53 -19 16 -83 41 -106
41 -9 0 -11 -7 -7 -25z"/>
<path d="M1430 4246 c-61 -31 -91 -66 -56 -66 9 0 16 -1 16 -2 1 -2 9 -50 19
-108 12 -71 15 -109 8 -118 -7 -9 -5 -18 7 -31 25 -28 57 -158 50 -202 -7 -47
6 -55 54 -30 65 33 72 52 27 77 -13 7 -24 30 -32 65 -6 29 -10 55 -8 58 3 2
27 12 54 21 l50 17 29 -31 c36 -38 42 -55 30 -80 -19 -35 6 -41 74 -16 35 13
69 28 76 33 19 15 14 37 -12 47 -30 11 -126 137 -126 166 0 14 -8 24 -22 28
-33 8 -148 149 -148 181 0 32 -11 31 -90 -9z m87 -198 c13 -12 23 -29 23 -39
0 -9 7 -22 15 -29 19 -16 10 -30 -19 -30 -32 0 -43 16 -51 73 -8 52 -2 57 32
25z"/>
<path d="M1140 4061 c-5 -11 -32 -27 -58 -36 -66 -21 -126 -75 -148 -130 -23
-61 -15 -149 20 -211 14 -26 26 -55 26 -65 0 -11 7 -19 17 -19 9 0 36 -11 60
-26 115 -67 235 -70 307 -6 27 24 56 91 56 130 0 51 -25 102 -51 102 -20 0
-21 -3 -14 -37 15 -70 11 -111 -14 -137 -33 -35 -65 -40 -114 -18 -45 20 -111
87 -102 103 4 5 -5 13 -18 18 -38 15 -107 116 -107 156 0 25 57 74 94 80 23 5
50 -1 91 -18 33 -14 65 -23 71 -20 25 9 25 37 1 59 -14 12 -34 38 -46 58 -25
40 -55 47 -71 17z"/>
<path d="M3644 3961 c-22 -10 -56 -32 -76 -50 -20 -17 -41 -31 -47 -31 -6 0
-11 -3 -12 -7 -3 -30 -9 -55 -23 -108 -9 -32 -16 -75 -16 -95 0 -121 87 -210
205 -210 17 0 36 -5 42 -11 7 -7 30 7 76 46 36 31 71 54 76 51 5 -4 13 -1 17
5 7 12 -93 119 -113 119 -7 0 -13 -9 -13 -19 0 -11 -22 -42 -48 -70 -58 -61
-96 -68 -139 -25 -21 21 -25 32 -20 62 6 50 56 131 85 138 13 4 22 14 22 25 0
29 27 65 73 99 51 38 78 38 119 1 31 -28 33 -33 31 -93 -1 -35 -3 -74 -5 -87
-2 -14 4 -28 14 -34 15 -10 25 -3 67 43 56 61 62 85 27 101 -13 6 -33 27 -44
48 -26 46 -79 97 -115 110 -44 17 -137 13 -183 -8z"/>
<path d="M2319 3840 c-312 -25 -582 -152 -822 -388 -201 -199 -320 -407 -378
-665 -29 -130 -33 -454 -6 -572 63 -279 177 -483 384 -688 204 -202 447 -330
708 -373 129 -21 359 -20 480 1 534 93 988 541 1091 1075 23 124 23 373 -1
515 -71 417 -380 803 -791 991 -179 82 -436 122 -665 104z m529 -106 c14 -4
22 -14 22 -28 1 -11 7 -32 15 -46 44 -77 -12 -179 -81 -148 -22 10 -27 9 -35
-5 -9 -16 -41 -17 -374 -17 -299 0 -365 2 -365 13 0 8 -9 24 -20 37 -11 13
-21 38 -22 57 -1 18 -2 40 -2 50 -1 25 86 39 366 58 133 10 281 21 328 25 119
10 142 11 168 4z m-890 -129 c2 -44 -2 -61 -13 -68 -8 -4 -15 -14 -15 -22 0
-8 -12 -17 -27 -20 -73 -15 -77 -18 -78 -60 -1 -45 -21 -58 -34 -23 -11 30 -3
80 16 91 9 6 13 17 9 32 -4 17 0 27 19 39 15 10 22 22 19 31 -4 8 1 17 10 21
26 10 18 24 -15 24 -18 0 -28 4 -24 10 4 6 33 10 68 8 l62 -3 3 -60z m152
-175 c0 -11 -4 -20 -10 -20 -5 0 -10 9 -10 20 0 11 5 20 10 20 6 0 10 -9 10
-20z m230 -51 c7 -11 9 -23 6 -26 -8 -9 -36 17 -36 33 0 21 18 17 30 -7z m190
-19 c0 -15 -37 -12 -43 4 -3 8 -3 17 0 20 8 7 43 -12 43 -24z m157 -91 c12 -4
64 -12 115 -18 51 -5 104 -14 118 -19 14 -6 61 -18 105 -28 79 -18 159 -47
151 -55 -3 -3 -1 -30 3 -62 4 -31 5 -57 1 -57 -3 0 -13 -16 -20 -36 -10 -24
-27 -42 -52 -55 -40 -20 -47 -33 -24 -42 14 -6 16 -30 3 -43 -12 -13 -7 -34 8
-34 8 0 15 7 15 15 0 9 31 30 78 51 42 20 106 49 140 66 35 16 70 27 77 24 16
-6 48 -107 43 -133 -2 -12 -37 -32 -100 -58 -53 -22 -100 -43 -104 -47 -17
-18 33 -5 121 31 52 22 97 36 100 31 3 -5 14 -50 25 -101 10 -51 23 -95 28
-98 5 -3 12 -18 16 -33 3 -16 12 -28 20 -28 20 0 51 -40 48 -60 -4 -23 43 -35
80 -21 22 8 59 -1 48 -13 -3 -2 -37 -9 -77 -14 -49 -7 -77 -16 -92 -31 l-21
-21 28 1 c15 0 63 4 107 9 44 4 81 7 83 5 1 -1 -2 -14 -7 -28 -9 -22 -17 -26
-73 -31 -35 -4 -85 -11 -113 -16 -27 -5 -81 -11 -118 -15 -38 -3 -77 -10 -88
-15 -10 -6 -19 -8 -19 -5 0 4 54 38 131 81 20 12 15 24 -10 24 -9 0 -60 -27
-114 -60 -55 -33 -101 -60 -103 -60 -2 0 -26 -14 -54 -31 -57 -35 -92 -35
-137 1 -14 11 -37 20 -51 20 -24 0 -24 -1 -8 -19 16 -17 15 -19 -8 -35 -14 -9
-29 -16 -35 -16 -5 0 -31 -20 -59 -45 -27 -25 -57 -45 -65 -45 -26 0 -29 18
-5 35 21 16 21 17 3 12 -11 -2 -28 -8 -37 -12 -33 -13 -19 16 15 31 24 11 25
14 7 9 -97 -22 -105 -13 -16 20 38 14 50 15 56 5 4 -7 13 -9 20 -5 9 6 9 10
-1 17 -11 8 -10 9 2 5 16 -5 59 30 59 47 0 4 -33 4 -74 0 -49 -4 -79 -3 -92 5
-15 10 -9 11 34 5 60 -7 67 3 26 41 -16 15 -39 25 -55 25 -19 0 -29 5 -29 15
0 9 -11 20 -25 25 -14 5 -25 14 -25 20 0 5 -4 10 -9 10 -6 0 -30 14 -54 30
-45 30 -67 37 -67 21 0 -5 -8 -11 -17 -15 -10 -3 -25 -9 -33 -12 -11 -5 -9 -1
4 14 10 12 27 24 37 27 11 4 17 11 13 16 -3 5 -14 7 -25 4 -11 -4 -19 -2 -19
4 0 7 -41 11 -119 11 -118 0 -157 11 -108 29 14 5 60 11 103 13 74 3 79 5 82
26 3 17 8 21 23 17 15 -5 19 -2 19 15 0 12 -4 19 -8 16 -24 -14 -75 -15 -102
-1 -37 19 -60 19 -60 -1 0 -19 -36 -10 -66 17 -11 11 -25 19 -31 19 -6 0 -23
6 -38 14 -21 11 -55 14 -131 11 -57 -2 -106 0 -108 4 -7 11 144 24 167 15 19
-7 23 11 5 22 -7 5 -49 7 -93 5 -70 -2 -87 -7 -140 -37 l-60 -35 95 3 c92 3
95 2 98 -20 2 -12 -3 -24 -10 -26 -7 -3 -74 -6 -148 -8 -115 -4 -141 -7 -177
-26 -24 -12 -43 -27 -43 -32 0 -5 26 -10 57 -12 58 -3 81 -21 41 -32 -13 -3
-60 -6 -105 -6 -46 0 -83 -4 -83 -9 0 -5 30 -26 68 -47 37 -20 93 -55 125 -76
l58 -38 151 -5 c82 -3 154 -7 159 -11 5 -3 9 -12 9 -20 0 -11 -20 -14 -101
-14 -99 0 -100 0 -93 -22 6 -20 5 -21 -10 -9 -9 7 -16 9 -16 3 0 -11 96 -62
118 -62 12 0 12 -3 2 -15 -14 -16 -10 -18 14 -9 9 3 16 12 16 20 0 20 13 17
28 -6 10 -16 10 -20 -2 -20 -8 0 -17 -7 -20 -16 -7 -19 12 -36 64 -60 19 -9
30 -18 23 -21 -16 -6 -164 58 -170 74 -7 17 -54 17 -79 -2 -19 -14 -18 -14 4
-15 45 0 10 -44 -68 -82 -69 -34 -162 -87 -174 -99 -13 -12 -40 -11 -71 3
l-26 12 53 25 c42 21 53 31 53 50 0 25 19 39 29 22 7 -10 44 -3 64 12 11 8 11
12 0 18 -19 13 -68 11 -68 -3 0 -6 -7 -4 -18 5 -10 10 -24 17 -30 17 -7 0 -12
5 -12 10 0 6 -10 10 -22 11 -13 1 6 7 42 14 47 9 69 10 78 2 10 -8 16 -7 22 4
9 14 16 15 95 22 29 2 41 8 43 21 3 15 -1 18 -17 13 -25 -6 -28 11 -3 29 16
12 16 13 -4 14 -12 0 -24 7 -28 15 -3 9 -12 12 -23 9 -17 -5 -17 -5 0 6 10 6
25 9 33 6 10 -4 14 -1 12 6 -6 16 -44 20 -162 20 -125 0 -216 -19 -216 -43 0
-14 7 -19 26 -19 16 0 24 -5 21 -12 -2 -8 -18 -12 -38 -10 -40 3 -45 7 -30 26
25 30 -21 47 -102 37 -5 -1 -7 -9 -5 -18 2 -13 16 -20 48 -24 l45 -6 -57 -1
c-56 -2 -57 -2 -55 26 2 26 0 27 -48 28 -27 1 -65 2 -82 3 -38 1 -44 18 -10
26 27 7 240 26 282 25 17 -1 67 2 113 6 80 6 83 7 67 24 -10 11 -30 22 -46 25
-16 4 -29 11 -29 16 0 5 -12 15 -27 22 -16 6 -34 17 -41 24 -20 20 -43 15 -96
-18 -33 -21 -45 -33 -37 -39 9 -5 5 -9 -12 -12 -27 -5 -117 13 -117 23 0 4
-17 5 -37 3 -21 -2 -53 -1 -70 2 -29 5 -31 8 -22 26 14 25 6 32 -20 18 -17 -8
-21 -8 -21 4 0 15 85 76 105 76 7 0 18 6 24 14 15 17 183 122 192 119 4 -1 13
4 19 12 7 8 21 15 32 15 16 0 18 3 9 14 -11 13 -48 19 -186 32 -92 8 -127 13
-133 18 -3 3 12 26 33 52 26 31 58 55 96 73 61 27 74 41 39 41 -60 0 60 95
215 171 122 59 297 118 385 130 36 4 101 13 145 19 44 6 112 15 150 19 93 11
424 11 452 0z m-450 -626 c5 -15 -31 -35 -68 -37 -24 -2 -29 2 -29 19 0 12 3
25 7 29 11 11 86 2 90 -11z m-219 -120 c-3 -14 -13 -18 -48 -17 -157 4 -160 4
-160 19 0 12 18 15 106 15 95 0 105 -2 102 -17z m491 -56 c-9 -7 -21 -22 -28
-34 -16 -31 -35 -30 -27 2 l6 25 -97 2 -98 2 70 6 c39 4 97 7 130 8 49 1 57
-1 44 -11z m-401 -54 c-3 -15 -16 -17 -108 -14 -58 1 -108 5 -112 7 -27 17 5
24 108 24 103 0 115 -2 112 -17z m322 -7 c0 -21 -28 -46 -51 -46 -11 0 -17 4
-14 10 3 6 -1 7 -10 4 -8 -4 -18 -17 -21 -30 -7 -25 -29 -33 -36 -11 -3 8 -41
13 -131 15 -95 3 -127 7 -127 16 0 18 67 26 214 26 91 1 126 4 140 15 25 19
36 19 36 1z m10 -82 c0 -2 -16 -4 -36 -4 -19 0 -33 4 -30 8 5 8 66 4 66 -4z
m57 0 c-3 -3 -12 -4 -19 -1 -8 3 -5 6 6 6 11 1 17 -2 13 -5z m148 -14 c3 -5 1
-10 -4 -10 -6 0 -11 5 -11 10 0 6 2 10 4 10 3 0 8 -4 11 -10z m92 4 c-3 -3
-12 -4 -19 -1 -8 3 -5 6 6 6 11 1 17 -2 13 -5z m-517 -33 c0 -12 -20 -25 -27
-18 -7 7 6 27 18 27 5 0 9 -4 9 -9z m1474 -15 c-7 -19 -27 -26 -94 -33 -76 -7
-79 -16 -3 -11 88 4 64 -7 -42 -20 -208 -27 -199 -27 -192 -9 5 14 -1 17 -36
18 -23 0 -35 3 -27 6 8 2 24 9 35 14 11 5 90 18 175 28 200 24 190 24 184 7z
m-2375 -22 c2 -2 -10 -4 -27 -4 -18 0 -32 5 -32 10 0 9 47 4 59 -6z m829 -14
c-18 -10 -39 -15 -47 -12 -9 3 -2 11 20 22 18 10 39 15 46 13 8 -3 1 -12 -19
-23z m602 26 c0 -9 -30 -14 -35 -6 -4 6 3 10 14 10 12 0 21 -2 21 -4z m-1400
-16 c0 -5 -4 -10 -10 -10 -5 0 -10 5 -10 10 0 6 5 10 10 10 6 0 10 -4 10 -10z
m475 -11 c-22 -4 -58 -7 -80 -7 l-40 1 40 7 c22 4 58 7 80 7 l40 1 -40 -9z
m190 -3 c18 -13 18 -14 -8 -9 -15 3 -27 9 -27 14 0 13 13 11 35 -5z m-347 -13
c-10 -2 -26 -2 -35 0 -10 3 -2 5 17 5 19 0 27 -2 18 -5z m847 -3 c3 -6 -1 -7
-9 -4 -18 7 -21 14 -7 14 6 0 13 -4 16 -10z m95 -2 c0 -5 -12 -5 -27 -2 -40
10 -42 15 -5 12 18 -1 32 -6 32 -10z m164 -3 c-22 -16 -44 -19 -44 -6 0 9 21
18 49 20 10 1 9 -4 -5 -14z m-1181 -2 c-7 -2 -19 -2 -25 0 -7 3 -2 5 12 5 14
0 19 -2 13 -5z m1459 -25 c-9 -9 -12 -7 -12 12 0 19 3 21 12 12 9 -9 9 -15 0
-24z m239 -14 c-31 -8 -63 -11 -75 -7 -16 6 -9 9 29 14 87 10 102 8 46 -7z
m-301 -13 c0 -9 -64 -51 -78 -51 -9 0 61 59 71 60 4 0 7 -4 7 -9z m111 -1 c5
0 9 -4 9 -10 0 -5 -13 -10 -29 -10 -31 0 -49 -14 -31 -25 5 -3 7 -17 4 -30 -3
-13 0 -26 7 -30 8 -5 10 -4 5 3 -11 19 5 14 21 -5 13 -17 14 -16 10 5 -6 25
10 31 19 7 4 -8 16 -15 28 -15 29 0 39 -10 25 -27 -8 -9 -8 -13 -1 -13 6 0 23
-5 39 -11 26 -10 27 -12 8 -19 -16 -7 -12 -9 18 -9 20 -1 37 -4 37 -9 0 -12
-62 -42 -115 -56 -48 -12 -50 -11 -72 13 -13 13 -32 29 -42 35 -9 6 -32 21
-51 33 -18 12 -58 24 -91 28 -33 4 -59 11 -59 16 0 5 5 9 12 9 6 0 21 9 32 19
12 11 47 33 79 50 31 17 67 37 80 46 12 8 28 13 35 10 8 -3 18 -5 23 -5z
m-1756 -10 c-27 -12 -35 -12 -35 0 0 6 12 10 28 9 24 0 25 -1 7 -9z m842 -6
c-3 -3 -12 -4 -19 -1 -8 3 -5 6 6 6 11 1 17 -2 13 -5z m-734 -11 c-7 -2 -13
-13 -13 -23 0 -14 9 -20 33 -23 27 -4 26 -4 -7 -3 -36 1 -39 4 -41 29 0 21 4
27 20 26 11 0 14 -3 8 -6z m121 -18 c-4 -8 -10 -15 -14 -15 -4 0 -10 7 -14 15
-4 10 1 15 14 15 13 0 18 -5 14 -15z m661 -14 c3 -5 1 -13 -5 -16 -6 -4 -8
-15 -5 -26 7 -21 -5 -25 -22 -8 -7 7 -7 17 1 35 12 25 21 30 31 15z m1275 -1
c0 -5 -11 -10 -24 -10 -13 0 -31 -3 -40 -6 -9 -3 -16 -1 -16 4 0 10 23 18 63
21 9 0 17 -3 17 -9z m-1931 -22 c14 -9 16 -14 7 -23 -16 -16 -55 -25 -62 -14
-3 5 4 9 15 9 12 0 21 5 21 10 0 6 -5 10 -11 10 -5 0 -7 5 -4 10 8 13 11 13
34 -2z m721 8 c0 -2 -7 -9 -15 -16 -12 -10 -15 -10 -15 4 0 9 7 16 15 16 8 0
15 -2 15 -4z m117 -2 c-3 -3 -12 -4 -19 -1 -8 3 -5 6 6 6 11 1 17 -2 13 -5z
m442 -7 c-2 -2 -17 -11 -34 -22 l-30 -18 19 21 c11 12 26 22 34 22 9 0 13 -1
11 -3z m-496 -34 c-7 -2 -19 -2 -25 0 -7 3 -2 5 12 5 14 0 19 -2 13 -5z m442
-53 c-4 -6 11 -18 34 -27 49 -19 44 -33 -12 -34 -23 0 -71 -6 -107 -13 -66
-12 -80 -25 -61 -55 8 -13 22 -12 98 2 103 20 179 40 189 50 4 4 -1 16 -11 27
-18 19 -17 20 2 20 11 0 31 -8 44 -19 13 -10 39 -26 57 -35 18 -9 30 -21 27
-26 -9 -14 -219 -59 -307 -66 -71 -5 -88 -3 -118 14 -38 21 -48 58 -20 73 94
55 177 99 183 99 5 0 5 -5 2 -10z m-251 -55 c-4 -8 -8 -15 -10 -15 -2 0 -4 7
-4 15 0 8 4 15 10 15 5 0 7 -7 4 -15z m66 1 c0 -2 -7 -7 -16 -10 -8 -3 -12 -2
-9 4 6 10 25 14 25 6z m-175 -16 c3 -5 1 -10 -4 -10 -6 0 -11 5 -11 10 0 6 2
10 4 10 3 0 8 -4 11 -10z m56 -36 c12 -14 9 -20 -16 -40 -17 -13 -37 -24 -45
-24 -9 0 -1 11 18 26 26 21 30 29 21 40 -7 8 -7 14 -1 14 5 0 16 -7 23 -16z
m-54 -226 c-3 -7 -5 -2 -5 12 0 14 2 19 5 13 2 -7 2 -19 0 -25z m79 -67 c-4
-6 -13 -11 -19 -11 -8 0 -7 3 2 9 8 5 10 14 6 22 -6 11 -5 11 5 2 7 -6 9 -16
6 -22z m81 -25 c15 5 16 4 2 -5 -17 -11 -59 -4 -59 11 0 5 8 4 19 -2 11 -5 28
-7 38 -4z m109 -42 c42 -45 26 -68 -31 -42 -27 12 -27 13 -19 46 8 29 21 28
50 -4z m-619 -5 c-24 -6 -45 -5 -55 1 -12 7 -2 9 38 9 55 -1 55 -1 17 -10z
m745 -63 c19 -39 10 -59 -23 -54 -28 4 -36 31 -18 64 16 31 21 30 41 -10z
m102 -47 c12 -23 13 -35 4 -48 -12 -19 -48 -17 -48 2 0 11 22 77 26 77 2 0 9
-14 18 -31z m-697 -15 c8 -22 -15 -44 -26 -25 -10 16 -4 41 10 41 5 0 12 -7
16 -16z m158 -64 c3 -6 -4 -10 -17 -10 -18 0 -20 2 -8 10 19 12 18 12 25 0z
m56 -17 c-5 -21 -15 -29 -34 -31 -15 -2 -27 1 -27 7 0 6 5 11 10 11 6 0 10 6
10 14 0 12 12 20 42 25 3 0 3 -11 -1 -26z m282 10 c4 -4 -7 -13 -25 -20 -22
-9 -34 -10 -36 -3 -2 5 -13 10 -25 11 -12 0 -31 4 -42 9 -14 6 2 9 51 9 39 1
74 -2 77 -6z m-175 -10 c-10 -2 -26 -2 -35 0 -10 3 -2 5 17 5 19 0 27 -2 18
-5z m-545 -30 c-7 -2 -19 -2 -25 0 -7 3 -2 5 12 5 14 0 19 -2 13 -5z m615 -19
c12 -4 22 -12 22 -20 0 -14 -47 -31 -57 -20 -4 3 1 6 10 6 10 0 17 5 17 10 0
6 -7 10 -15 10 -8 0 -15 5 -15 10 0 11 6 12 38 4z m192 -12 c0 -12 -22 -32
-36 -32 -7 0 -10 8 -7 20 5 19 43 29 43 12z"/>
<path d="M2178 3243 c7 -3 16 -2 19 1 4 3 -2 6 -13 5 -11 0 -14 -3 -6 -6z"/>
<path d="M2497 3033 c-48 -31 -85 -58 -83 -60 2 -3 14 0 25 6 16 9 28 8 50 -4
17 -8 37 -15 46 -15 9 0 13 -5 9 -11 -3 -6 -17 -8 -29 -5 -17 4 -24 1 -27 -11
-3 -13 8 -23 37 -36 22 -10 29 -15 15 -13 -14 3 -33 6 -42 6 -11 0 -24 14 -32
35 -14 32 -19 35 -55 35 -40 0 -111 -27 -111 -42 0 -4 -5 -8 -10 -8 -19 0 -90
-53 -90 -67 0 -8 -4 -12 -9 -9 -12 8 -61 -11 -61 -23 0 -5 14 -12 31 -16 17
-4 28 -9 25 -12 -3 -3 16 -19 42 -36 26 -16 63 -41 83 -54 34 -23 43 -24 170
-21 139 3 161 11 102 37 -18 8 -33 21 -33 28 0 15 -46 18 -55 3 -3 -5 -14 -10
-23 -10 -13 0 -14 2 -4 8 16 11 6 39 -16 45 -10 3 -1 3 18 2 41 -3 73 21 49
36 -8 5 -22 9 -31 9 -10 0 -18 5 -18 10 0 6 13 10 29 10 16 0 44 3 62 7 31 6
33 5 20 -10 -9 -12 -10 -17 -2 -17 7 0 9 -4 6 -10 -3 -5 -15 -10 -26 -10 -14
0 -19 -6 -17 -17 3 -14 19 -20 76 -26 76 -9 127 -3 117 13 -3 6 -16 10 -29 10
-13 0 -31 9 -41 20 -18 20 -17 20 24 20 39 0 42 2 36 22 -6 18 -4 20 11 13 11
-4 29 -10 42 -12 17 -4 21 -2 16 11 -4 11 -1 16 10 16 9 0 16 -6 16 -14 0 -8
6 -16 14 -19 10 -4 13 0 11 15 -4 19 -1 20 41 13 44 -6 45 -6 34 15 -10 19
-19 21 -61 18 -43 -3 -49 -1 -50 17 -1 11 -2 26 -3 34 -2 20 -67 52 -93 46
-12 -3 -24 -1 -27 4 -3 4 -17 6 -31 3 -15 -2 -25 0 -25 7 0 6 12 11 28 11 25
0 24 2 -20 30 -27 17 -49 30 -51 30 -1 0 -41 -25 -90 -57z m180 -99 c-3 -3
-12 -4 -19 -1 -8 3 -5 6 6 6 11 1 17 -2 13 -5z m43 2 c0 -3 -4 -8 -10 -11 -5
-3 -10 -1 -10 4 0 6 5 11 10 11 6 0 10 -2 10 -4z m-297 -47 c-22 -6 -33 -16
-35 -32 -2 -12 -7 -20 -13 -17 -5 3 -9 13 -8 23 2 9 -2 17 -8 17 -5 0 -8 4 -5
8 3 5 27 9 53 9 45 0 46 0 16 -8z m204 -5 c-3 -3 -12 -4 -19 -1 -8 3 -5 6 6 6
11 1 17 -2 13 -5z m23 -34 c0 -5 -2 -10 -4 -10 -3 0 -8 5 -11 10 -3 6 -1 10 4
10 6 0 11 -4 11 -10z m-190 -14 c0 -3 -4 -8 -10 -11 -5 -3 -10 -1 -10 4 0 6 5
11 10 11 6 0 10 -2 10 -4z m-207 -13 c-7 -2 -19 -2 -25 0 -7 3 -2 5 12 5 14 0
19 -2 13 -5z m379 -35 c-6 -6 -15 -8 -19 -4 -4 4 -1 11 7 16 19 12 27 3 12
-12z m-252 -9 c-19 -4 -39 -4 -45 -1 -12 8 56 20 70 13 5 -3 -6 -8 -25 -12z
m-136 -8 c4 -5 -3 -7 -14 -4 -23 6 -26 13 -6 13 8 0 17 -4 20 -9z m181 -51 c3
-5 -1 -10 -9 -10 -9 0 -16 5 -16 10 0 6 4 10 9 10 6 0 13 -4 16 -10z"/>
<path d="M3031 2759 c-13 -11 -21 -22 -18 -25 9 -9 47 16 47 31 0 19 0 19 -29
-6z"/>
<path d="M2625 2639 c-4 -6 -20 -8 -38 -4 -24 5 -28 4 -17 -4 11 -8 12 -11 2
-11 -7 0 -10 -5 -7 -10 3 -6 -1 -13 -9 -16 -9 -3 -16 -13 -16 -21 0 -11 8 -9
31 9 17 13 38 28 47 33 9 6 22 16 30 23 11 10 11 12 -2 12 -8 0 -18 -5 -21
-11z"/>
<path d="M2706 2630 c-15 -5 -16 -9 -7 -14 7 -5 18 -3 24 3 14 14 6 20 -17 11z"/>
<path d="M3211 2581 c10 -6 57 -25 105 -41 49 -17 101 -37 116 -45 14 -8 39
-15 55 -15 27 1 27 1 9 15 -11 8 -26 15 -34 15 -7 0 -37 11 -66 25 -29 14 -75
29 -102 35 -27 5 -60 12 -74 15 -20 5 -22 4 -9 -4z"/>
<path d="M2628 2573 c7 -3 16 -2 19 1 4 3 -2 6 -13 5 -11 0 -14 -3 -6 -6z"/>
<path d="M2495 2550 c-3 -5 1 -10 9 -10 9 0 16 5 16 10 0 6 -4 10 -9 10 -6 0
-13 -4 -16 -10z"/>
<path d="M2754 2549 c-2 -4 2 -10 8 -12 7 -3 1 -6 -14 -6 -29 -1 -78 -20 -78
-31 0 -3 6 -15 14 -25 11 -16 24 -19 72 -17 33 2 75 4 95 5 29 1 40 8 57 33
l21 33 -45 7 c-25 3 -48 4 -51 0 -4 -3 1 -6 10 -6 10 0 17 -4 17 -10 0 -13
-57 -13 -65 -1 -3 6 2 14 11 19 14 8 11 10 -15 14 -18 3 -34 1 -37 -3z"/>
<path d="M3090 2540 c0 -5 7 -10 16 -10 8 0 12 5 9 10 -3 6 -10 10 -16 10 -5
0 -9 -4 -9 -10z"/>
<path d="M2530 2532 c0 -6 18 -17 40 -23 34 -10 43 -10 56 3 13 13 11 15 -18
15 -18 0 -43 4 -55 8 -15 4 -23 3 -23 -3z"/>
<path d="M3496 2532 c-3 -6 -1 -14 5 -17 14 -9 20 -2 10 14 -6 8 -11 9 -15 3z"/>
<path d="M2980 2510 c-12 -8 -11 -10 8 -10 12 0 22 5 22 10 0 13 -11 13 -30 0z"/>
<path d="M2940 2499 c0 -5 5 -7 10 -4 6 3 10 8 10 11 0 2 -4 4 -10 4 -5 0 -10
-5 -10 -11z"/>
<path d="M3360 2500 c0 -5 5 -10 10 -10 6 0 10 5 10 10 0 6 -4 10 -10 10 -5 0
-10 -4 -10 -10z"/>
<path d="M2600 2480 c0 -5 7 -10 16 -10 8 0 12 5 9 10 -3 6 -10 10 -16 10 -5
0 -9 -4 -9 -10z"/>
<path d="M3570 2449 c0 -5 5 -7 10 -4 6 3 10 8 10 11 0 2 -4 4 -10 4 -5 0 -10
-5 -10 -11z"/>
<path d="M2780 2430 l-25 -8 28 -1 c15 -1 27 4 27 9 0 6 -1 10 -2 9 -2 -1 -14
-5 -28 -9z"/>
<path d="M2858 2403 c-30 -8 -22 -35 10 -31 15 2 27 9 27 17 0 16 -12 21 -37
14z"/>
<path d="M1940 2185 c0 -8 9 -15 20 -15 11 0 20 7 20 15 0 8 -9 15 -20 15 -11
0 -20 -7 -20 -15z"/>
<path d="M2860 2170 c-8 -5 -10 -10 -5 -10 6 0 17 5 25 10 8 5 11 10 5 10 -5
0 -17 -5 -25 -10z"/>
<path d="M1831 2069 c-27 -29 -17 -39 11 -11 12 12 19 24 16 27 -3 4 -15 -4
-27 -16z"/>
<path d="M3060 1990 c0 -5 5 -10 10 -10 6 0 10 5 10 10 0 6 -4 10 -10 10 -5 0
-10 -4 -10 -10z"/>
<path d="M3551 1166 c-9 -11 -10 -20 -2 -35 6 -11 11 -38 11 -60 0 -55 -25
-55 -74 -1 -20 22 -41 40 -46 40 -17 0 -130 -59 -130 -68 0 -4 4 -12 9 -18 12
-12 81 -192 81 -210 0 -8 -6 -14 -14 -14 -11 0 -104 69 -227 169 -25 20 -35
23 -57 15 -18 -7 -26 -16 -25 -29 1 -11 25 -101 52 -200 28 -99 51 -188 51
-197 0 -23 -22 -23 -42 0 -21 23 -136 211 -183 300 -34 62 -43 72 -67 72 -15
0 -30 -5 -33 -10 -4 -6 -15 -65 -26 -133 -18 -115 -50 -274 -65 -324 -6 -20
-3 -23 25 -23 28 0 31 3 31 29 0 62 13 76 83 89 110 20 124 18 147 -28 24 -46
34 -48 129 -21 65 18 81 31 63 54 -10 12 -82 255 -82 276 0 20 16 12 81 -40
78 -62 252 -179 267 -179 25 0 19 25 -34 152 -79 185 -104 250 -104 266 0 24
30 8 100 -53 58 -50 77 -76 119 -158 28 -54 51 -107 51 -117 0 -26 26 -26 68
0 38 23 38 24 13 58 -10 15 -39 68 -64 118 -45 89 -54 129 -61 266 -1 27 -28
35 -45 14z m-607 -456 c25 -43 46 -84 46 -90 0 -21 -133 -49 -145 -30 -5 8 22
188 32 203 8 13 21 -2 67 -83z"/>
<path d="M1445 1091 c-93 -43 -177 -176 -178 -283 0 -47 4 -63 28 -94 41 -53
98 -76 187 -72 67 3 73 5 87 30 22 38 7 45 -38 20 -140 -79 -224 56 -141 225
60 122 161 178 209 117 12 -15 21 -33 21 -40 0 -7 5 -25 10 -39 9 -23 13 -25
25 -15 41 34 -19 136 -93 158 -53 16 -70 15 -117 -7z"/>
<path d="M1780 979 c-112 -46 -207 -311 -143 -397 49 -65 155 -90 235 -54 58
25 90 78 113 185 27 123 11 207 -47 250 -31 23 -120 32 -158 16z m127 -67 c3
-13 3 -61 0 -106 -9 -142 -70 -256 -136 -256 -44 0 -64 35 -63 109 1 103 66
257 119 285 34 17 71 3 80 -32z"/>
<path d="M2060 908 c0 -31 -57 -298 -79 -370 -19 -63 -14 -78 26 -78 19 0 23
5 23 30 0 49 30 184 44 198 14 14 16 8 53 -148 26 -110 42 -107 100 19 64 139
76 136 72 -16 l-4 -118 50 0 c40 0 49 3 45 15 -3 8 -5 115 -5 238 0 220 0 222
-21 222 -29 0 -33 -7 -88 -142 -27 -65 -54 -122 -61 -128 -20 -17 -31 10 -54
140 -28 148 -33 160 -71 160 -24 0 -30 -4 -30 -22z"/>
<path d="M2440 893 c0 -76 -9 -433 -12 -448 -3 -18 3 -20 46 -20 l49 0 1 95 1
95 49 7 c85 12 126 57 126 138 0 46 -26 102 -59 127 -17 13 -201 18 -201 6z
m143 -47 c40 -37 50 -90 27 -142 -18 -43 -54 -65 -79 -49 -12 7 -16 197 -4
208 12 13 30 7 56 -17z"/>
</g>
</svg>
